<?xml version="1.0" encoding="utf-8"?>
<!-- Generator: Adobe Illustrator 19.0.0, SVG Export Plug-In . SVG Version: 6.00 Build 0)  -->
<svg version="1.1" id="Layer_1" xmlns="http://www.w3.org/2000/svg" xmlns:xlink="http://www.w3.org/1999/xlink" x="0px" y="0px"
	 viewBox="0 0 255.5 11.9" style="enable-background:new 0 0 255.5 11.9;" xml:space="preserve">
<style type="text/css">
	.st0{fill:#E8150E;}
</style>
<g id="XMLID_3_">
	<path id="XMLID_34_" class="st0" d="M0,0.2h3.2c3.2,0,5.2,1.7,5.2,4.5s-2,4.5-5.2,4.5H2.4v2.6H0V0.2z M3.1,7c1.9,0,2.8-0.8,2.8-2.4
		C5.9,3,5,2.2,3.1,2.2H2.4V7H3.1z"/>
	<path id="XMLID_37_" class="st0" d="M22.2,11.7h-2.8l-1.9-2.9c-0.2,0-0.5,0.1-0.7,0.1H16v2.9h-2.4V0.2h3.2C20,0.2,22,1.7,22,4.5
		c0,1.8-0.8,2.9-2.2,3.6L22.2,11.7z M16.7,6.8c1.9,0,2.8-0.6,2.8-2.2s-0.9-2.3-2.8-2.3H16v4.5H16.7z"/>
	<path id="XMLID_40_" class="st0" d="M27.1,5.9c0-3.4,2.7-5.9,6-5.9s6,2.5,6,5.9c0,3.4-2.7,5.9-6,5.9S27.1,9.3,27.1,5.9z M36.6,5.9
		c0-2.2-1.4-3.8-3.5-3.8s-3.5,1.6-3.5,3.8s1.4,3.8,3.5,3.8S36.6,8.1,36.6,5.9z"/>
	<path id="XMLID_43_" d="M47.7,4.3l3.1-4.1h2.7l-3.9,5.2l4.4,6.3H51L48,7.2l-1.1,1.3v3.2h-2.4V0.2h2.4v4c0,0.6-0.1,1.4-0.2,1.9
		C47,5.5,47.3,4.8,47.7,4.3z"/>
	<path id="XMLID_45_" d="M57.4,5.9c0-3.4,2.7-5.9,6-5.9s6,2.5,6,5.9c0,3.4-2.7,5.9-6,5.9S57.4,9.3,57.4,5.9z M66.9,5.9
		c0-2.2-1.4-3.8-3.5-3.8s-3.5,1.6-3.5,3.8s1.4,3.8,3.5,3.8S66.9,8.1,66.9,5.9z"/>
	<path id="XMLID_48_" d="M78.2,6.3c-0.6-0.5-1.4-1.6-1.4-1.6S77,6,77,6.9v4.8h-2.2V0.1H75l5.8,5.5c0.6,0.5,1.4,1.6,1.4,1.6
		S82.1,5.8,82.1,5V0.2h2.2v11.7H84L78.2,6.3z"/>
	<path id="XMLID_50_" d="M89.1,9.4L91,8.3c0.5,0.8,1.2,1.4,2.3,1.4c1,0,1.6-0.5,1.6-1.2c0-0.8-0.6-1.1-1.7-1.6l-0.6-0.3
		c-1.7-0.7-2.9-1.6-2.9-3.6c0-1.8,1.4-3.1,3.5-3.1c1.5,0,2.6,0.5,3.4,1.9l-1.9,1.2c-0.4-0.7-0.9-1-1.5-1c-0.7,0-1.1,0.4-1.1,1
		c0,0.7,0.4,1,1.5,1.4l0.6,0.3c2,0.9,3.2,1.8,3.2,3.7c0,2.1-1.7,3.3-3.9,3.3C91.2,11.9,89.8,10.8,89.1,9.4z"/>
	<path id="XMLID_52_" d="M102.6,7.5V0.2h2.4v7.2c0,1.7,0.7,2.3,2.3,2.3c1.6,0,2.3-0.6,2.3-2.3V0.2h2.4v7.4c0,2.9-2,4.3-4.7,4.3
		C104.6,11.9,102.6,10.5,102.6,7.5z"/>
	<path id="XMLID_54_" d="M117.7,0.2h2.4v9.5h5.2v2.1h-7.6V0.2z"/>
	<path id="XMLID_56_" d="M131.8,2.2h-3.3V0.2h9v2.1h-3.3v9.5h-2.4V2.2z"/>
	<path id="XMLID_58_" d="M145.3,0.1h0.2l5.3,11.7h-2.5l-0.5-1.3H143l-0.5,1.3h-2.3L145.3,0.1z M146.9,8.4l-0.8-2
		c-0.3-0.8-0.7-2.1-0.7-2.1s-0.3,1.3-0.7,2.1l-0.8,2H146.9z"/>
	<path id="XMLID_61_" d="M156.7,2.2h-3.3V0.2h9v2.1h-3.3v9.5h-2.4V2.2z"/>
	<path id="XMLID_63_" d="M166.5,9.4l1.9-1.1c0.5,0.8,1.2,1.4,2.3,1.4c1,0,1.6-0.5,1.6-1.2c0-0.8-0.6-1.1-1.7-1.6L170,6.7
		c-1.7-0.7-2.9-1.6-2.9-3.6c0-1.8,1.4-3.1,3.5-3.1c1.5,0,2.6,0.5,3.4,1.9l-1.9,1.2c-0.4-0.7-0.9-1-1.5-1c-0.7,0-1.1,0.4-1.1,1
		c0,0.7,0.4,1,1.5,1.4l0.6,0.3c2,0.9,3.2,1.8,3.2,3.7c0,2.1-1.7,3.3-3.9,3.3C168.6,11.9,167.2,10.8,166.5,9.4z"/>
	<path id="XMLID_65_" d="M180.1,0.2h2.4v11.6h-2.4V0.2z"/>
	<path id="XMLID_67_" d="M187.9,5.9c0-3.4,2.7-5.9,6-5.9s6,2.5,6,5.9c0,3.4-2.7,5.9-6,5.9S187.9,9.3,187.9,5.9z M197.4,5.9
		c0-2.2-1.4-3.8-3.5-3.8s-3.5,1.6-3.5,3.8s1.4,3.8,3.5,3.8S197.4,8.1,197.4,5.9z"/>
	<path id="XMLID_70_" d="M204.9,5.9c0-3.4,2.7-5.9,6-5.9s6,2.5,6,5.9c0,3.4-2.7,5.9-6,5.9S204.9,9.3,204.9,5.9z M214.4,5.9
		c0-2.2-1.4-3.8-3.5-3.8s-3.5,1.6-3.5,3.8s1.4,3.8,3.5,3.8S214.4,8.1,214.4,5.9z"/>
	<path id="XMLID_73_" d="M225.7,6.3c-0.6-0.5-1.4-1.6-1.4-1.6s0.2,1.3,0.2,2.1v4.8h-2.2V0.1h0.2l5.8,5.5c0.6,0.5,1.4,1.6,1.4,1.6
		s-0.2-1.3-0.2-2.1V0.2h2.2v11.7h-0.2L225.7,6.3z"/>
	<path id="XMLID_75_" d="M237.7,0.2h2.4v11.6h-2.4V0.2z"/>
	<path id="XMLID_77_" d="M245.9,0.2h3.6c3.6,0,6.1,2.4,6.1,5.8c0,3.4-2.5,5.8-6.1,5.8h-3.6V0.2z M249.3,9.6c2.6,0,3.7-1.5,3.7-3.7
		s-1.2-3.7-3.7-3.7h-1.1v7.4H249.3z"/>
</g>
</svg>
